<svg xmlns="http://www.w3.org/2000/svg" width="251" height="251" fill="none"><path fill="#0F172A" fill-opacity=".2" d="m117.35 101.411 17.928-57.77-6.338 48.896h60.486l-67.911 112.28 50.526-103.406H117.35Z"/><path fill="#0F172A" fill-opacity=".2" d="m116.625 101.411 17.928-57.77-6.338 48.896h60.486l-67.911 112.28 50.526-103.406h-54.691Z"/><path fill="#fff" d="M216.352 43.641H236.1l14.899 47.266-17.748 24.448c-3.078-3.622-1.63 0 0 0l-31.716 44.74h44.218l-6.384 46.171H120.884l67.605-112.853h-60.425l7.214-49.772h81.074Z"/><path fill="#fff" d="M135.454 43.641H76.779l-70.984 94.17L0 177.29h71.714l-4.895 29.881h52.88l11.771-72.982H67l68.454-90.548Z"/></svg>